# xmcd
#
# Track frame offsets: 
#        150
#        25201
#        39234
#        55622
#        73803
#        87499
#        111275
#        125796
#        143324
#        160065
#        176701
#        196179
#        217900
#        239793
#
# Disc length: 3399 seconds
#
# Revision: 0
# Processed by: cddbd v1.5.2PL0 Copyright (c) Steve Scherf et al.
# Submitted via: ExactAudioCopyFreeDBPlugin 1.0
#
DISCID=c30d450e
DTITLE=Professor Washboard and Martin Friedenstab - Professor Washboar
DTITLE=d and Martin Friedenstab
DYEAR=1900
DGENRE=Blues
TTITLE0=Mississippi Train
TTITLE1=Lonesome Road
TTITLE2=Boxcar Blues
TTITLE3=Leavin Blues
TTITLE4=Have a Good Time
TTITLE5=Sinner Man
TTITLE6=Early Morning Blues
TTITLE7=Bo Diddley
TTITLE8=Highway Side Blues
TTITLE9=Steady Rollin Man
TTITLE10=Mary Don't You Weep
TTITLE11=One More Boogie
TTITLE12=Leavin Town Blues
TTITLE13=Jesus on the Mainline
EXTD=
EXTT0=
EXTT1=
EXTT2=
EXTT3=
EXTT4=
EXTT5=
EXTT6=
EXTT7=
EXTT8=
EXTT9=
EXTT10=
EXTT11=
EXTT12=
EXTT13=
PLAYORDER=
